<svg width="27" height="28" viewBox="0 0 27 28" fill="none" xmlns="http://www.w3.org/2000/svg">
<path d="M13.5044 0.5C7.86828 0.5 6.21993 0.505814 5.89952 0.532394C4.74289 0.628537 4.02317 0.810649 3.23907 1.20104C2.6348 1.5011 2.15823 1.84892 1.6879 2.33649C0.831328 3.22566 0.312195 4.31957 0.124269 5.6199C0.0329015 6.25116 0.00632189 6.37991 0.000922903 9.60435C-0.00115363 10.6792 0.000922903 12.0937 0.000922903 13.991C0.000922903 19.6226 0.0071525 21.2693 0.0341474 21.5891C0.127591 22.7145 0.304097 23.4226 0.677872 24.1972C1.3922 25.6798 2.75648 26.7928 4.36372 27.2082C4.92023 27.3514 5.53488 27.4303 6.32396 27.4677C6.65829 27.4823 10.0659 27.4926 13.4755 27.4926C16.8852 27.4926 20.2949 27.4885 20.6209 27.4719C21.5346 27.4289 22.0651 27.3577 22.6517 27.2061C24.2694 26.7887 25.6087 25.6923 26.3376 24.1889C26.7041 23.433 26.8899 22.6979 26.974 21.6312C26.9923 21.3986 27 17.6906 27 13.9875C27 10.2838 26.9917 6.58258 26.9734 6.35001C26.8883 5.26606 26.7024 4.53719 26.3241 3.7668C26.0136 3.13616 25.6689 2.6652 25.1685 2.18365C24.2754 1.33061 23.1831 0.81148 21.8816 0.623761C21.2509 0.532602 21.1253 0.505607 17.8983 0.5H13.5044Z" fill="url(#paint0_radial)"/>
<path d="M13.5044 0.5C7.86828 0.5 6.21993 0.505814 5.89952 0.532394C4.74289 0.628537 4.02317 0.810649 3.23907 1.20104C2.6348 1.5011 2.15823 1.84892 1.6879 2.33649C0.831328 3.22566 0.312195 4.31957 0.124269 5.6199C0.0329015 6.25116 0.00632189 6.37991 0.000922903 9.60435C-0.00115363 10.6792 0.000922903 12.0937 0.000922903 13.991C0.000922903 19.6226 0.0071525 21.2693 0.0341474 21.5891C0.127591 22.7145 0.304097 23.4226 0.677872 24.1972C1.3922 25.6798 2.75648 26.7928 4.36372 27.2082C4.92023 27.3514 5.53488 27.4303 6.32396 27.4677C6.65829 27.4823 10.0659 27.4926 13.4755 27.4926C16.8852 27.4926 20.2949 27.4885 20.6209 27.4719C21.5346 27.4289 22.0651 27.3577 22.6517 27.2061C24.2694 26.7887 25.6087 25.6923 26.3376 24.1889C26.7041 23.433 26.8899 22.6979 26.974 21.6312C26.9923 21.3986 27 17.6906 27 13.9875C27 10.2838 26.9917 6.58258 26.9734 6.35001C26.8883 5.26606 26.7024 4.53719 26.3241 3.7668C26.0136 3.13616 25.6689 2.6652 25.1685 2.18365C24.2754 1.33061 23.1831 0.81148 21.8816 0.623761C21.2509 0.532602 21.1253 0.505607 17.8983 0.5H13.5044Z" fill="url(#paint1_radial)"/>
<path d="M13.498 4.03027C10.791 4.03027 10.4513 4.04211 9.3881 4.09049C8.32699 4.13908 7.6027 4.30708 6.96894 4.55356C6.31338 4.80814 5.75728 5.14869 5.20326 5.70292C4.64883 6.25694 4.30828 6.81303 4.05286 7.46839C3.80576 8.10235 3.63756 8.82686 3.5898 9.88755C3.54224 10.9507 3.52979 11.2907 3.52979 13.9976C3.52979 16.7046 3.54183 17.0433 3.59 18.1065C3.6388 19.1676 3.80679 19.8919 4.05307 20.5256C4.30786 21.1812 4.64841 21.7373 5.20264 22.2913C5.75645 22.8457 6.31255 23.1871 6.96769 23.4417C7.60187 23.6882 8.32637 23.8562 9.38727 23.9048C10.4505 23.9532 10.79 23.965 13.4967 23.965C16.2039 23.965 16.5426 23.9532 17.6058 23.9048C18.6669 23.8562 19.392 23.6882 20.0262 23.4417C20.6815 23.1871 21.2368 22.8457 21.7906 22.2913C22.345 21.7373 22.6856 21.1812 22.941 20.5258C23.186 19.8919 23.3542 19.1674 23.4041 18.1067C23.4518 17.0435 23.4643 16.7046 23.4643 13.9976C23.4643 11.2907 23.4518 10.9509 23.4041 9.88776C23.3542 8.82665 23.186 8.10235 22.941 7.4686C22.6856 6.81303 22.345 6.25694 21.7906 5.70292C21.2362 5.14849 20.6817 4.80794 20.0256 4.55356C19.3901 4.30708 18.6654 4.13908 17.6043 4.09049C16.5411 4.04211 16.2027 4.03027 13.4949 4.03027H13.498ZM12.6038 5.82647C12.8692 5.82606 13.1653 5.82647 13.498 5.82647C16.1593 5.82647 16.4747 5.83603 17.5256 5.88379C18.4974 5.92822 19.0249 6.09061 19.3762 6.22704C19.8414 6.4077 20.173 6.62365 20.5216 6.97251C20.8705 7.32137 21.0865 7.65362 21.2675 8.11876C21.404 8.46969 21.5665 8.99713 21.6108 9.96895C21.6585 11.0197 21.6689 11.3353 21.6689 13.9953C21.6689 16.6554 21.6585 16.971 21.6108 18.0217C21.5663 18.9936 21.404 19.521 21.2675 19.8719C21.0869 20.3371 20.8705 20.6683 20.5216 21.0169C20.1728 21.3658 19.8416 21.5818 19.3762 21.7624C19.0253 21.8995 18.4974 22.0614 17.5256 22.1059C16.4749 22.1536 16.1593 22.164 13.498 22.164C10.8365 22.164 10.5211 22.1536 9.47033 22.1059C8.49851 22.061 7.97107 21.8986 7.61952 21.7622C7.15437 21.5815 6.82213 21.3656 6.47327 21.0167C6.12441 20.6679 5.90845 20.3365 5.72738 19.8711C5.59095 19.5202 5.42836 18.9927 5.38413 18.0209C5.33637 16.9702 5.32682 16.6546 5.32682 13.9929C5.32682 11.3312 5.33637 11.0172 5.38413 9.96646C5.42857 8.99464 5.59095 8.4672 5.72738 8.11585C5.90804 7.65071 6.12441 7.31846 6.47327 6.96961C6.82213 6.62075 7.15437 6.40479 7.61952 6.22371C7.97087 6.08666 8.49851 5.92469 9.47033 5.88005C10.3898 5.83852 10.7462 5.82606 12.6038 5.82398V5.82647ZM18.8185 7.48147C18.1581 7.48147 17.6224 8.01659 17.6224 8.67714C17.6224 9.33748 18.1581 9.87322 18.8185 9.87322C19.4788 9.87322 20.0145 9.33748 20.0145 8.67714C20.0145 8.0168 19.4788 7.48106 18.8185 7.48106V7.48147ZM13.498 8.87898C10.6712 8.87898 8.37932 11.1708 8.37932 13.9976C8.37932 16.8244 10.6712 19.1152 13.498 19.1152C16.3248 19.1152 18.6158 16.8244 18.6158 13.9976C18.6158 11.1708 16.3245 8.87898 13.4978 8.87898H13.498ZM13.498 10.6752C15.3328 10.6752 16.8204 12.1626 16.8204 13.9976C16.8204 15.8325 15.3328 17.3201 13.498 17.3201C11.6629 17.3201 10.1755 15.8325 10.1755 13.9976C10.1755 12.1626 11.6629 10.6752 13.498 10.6752Z" fill="#FEFEFE"/>
<defs>
<radialGradient id="paint0_radial" cx="0" cy="0" r="1" gradientUnits="userSpaceOnUse" gradientTransform="translate(7.17191 29.5716) rotate(-90) scale(26.7517 24.888)">
<stop stop-color="#FFDD55"/>
<stop offset="0.1" stop-color="#FFDD55"/>
<stop offset="0.5" stop-color="#FF543E"/>
<stop offset="1" stop-color="#C837AB"/>
</radialGradient>
<radialGradient id="paint1_radial" cx="0" cy="0" r="1" gradientUnits="userSpaceOnUse" gradientTransform="translate(-4.52264 2.4445) rotate(78.6776) scale(11.9582 49.3048)">
<stop stop-color="#3771C8"/>
<stop offset="0.128" stop-color="#3771C8"/>
<stop offset="1" stop-color="#6600FF" stop-opacity="0"/>
</radialGradient>
</defs>
</svg>
