<svg id="Layer_1" data-name="Layer 1" xmlns="http://www.w3.org/2000/svg" viewBox="0 0 59.96 59.96"><defs><style>.cls-1{fill:none;stroke:#fefefe;stroke-miterlimit:10;stroke-width:5px;}.cls-2{fill:#fefefe;}</style></defs><circle class="cls-1" cx="29.98" cy="29.98" r="27.48"/><path class="cls-2" d="M43.12,38.91a6.39,6.39,0,0,0,1.35-4.24c0-6.73-6.35-12.19-14.17-12.19S16.13,27.94,16.13,34.67A6.27,6.27,0,0,0,17.54,39c-3.54,3.28-5.8,7.69-5.8,11.59,9.49,9.47,26.73,9.79,37.11,0C49.11,45.78,46.74,41.78,43.12,38.91Z" transform="translate(-0.33 -0.32)"/><path class="cls-2" d="M37.75,27.79c-1.62-.58-1.5-2.29-.34-4s.75-5.39,3.24-2.84c1.25,1.28,1.93,2.57,1.26,4.45A3.41,3.41,0,0,1,37.75,27.79Z" transform="translate(-0.33 -0.32)"/><path class="cls-2" d="M23.07,27.79c1.63-.58,1.5-2.29.35-4s-.75-5.39-3.24-2.84c-1.26,1.28-1.93,2.57-1.26,4.45A3.39,3.39,0,0,0,23.07,27.79Z" transform="translate(-0.33 -0.32)"/></svg>