<?xml version="1.0" encoding="utf-8"?>
<!-- Generator: Adobe Illustrator 25.0.0, SVG Export Plug-In . SVG Version: 6.00 Build 0)  -->
<svg version="1.1" id="Layer_1" xmlns="http://www.w3.org/2000/svg" xmlns:xlink="http://www.w3.org/1999/xlink" x="0px" y="0px"
	 viewBox="0 0 60 60" style="enable-background:new 0 0 60 60;" xml:space="preserve">
<style type="text/css">
	.st0{fill:none;stroke:#1A1A1A;stroke-width:5;stroke-miterlimit:10;}
	.st1{fill:#1A1A1A;}
</style>
<circle class="st0" cx="30" cy="30" r="27.5"/>
<path class="st1" d="M42.8,38.6c0.9-1.2,1.4-2.7,1.3-4.2c0-6.7-6.3-12.2-14.2-12.2s-14.2,5.5-14.2,12.2c-0.1,1.6,0.4,3.1,1.4,4.3
	c-3.5,3.3-5.8,7.7-5.8,11.6c9.5,9.5,26.7,9.8,37.1,0C48.8,45.5,46.4,41.5,42.8,38.6z"/>
<path class="st1" d="M37.4,27.5c-1.6-0.6-1.5-2.3-0.3-4s0.8-5.4,3.2-2.8c1.3,1.3,1.9,2.6,1.3,4.5C41.1,26.9,39.2,27.9,37.4,27.5z"/>
<path class="st1" d="M22.7,27.5c1.6-0.6,1.5-2.3,0.4-4s-0.8-5.4-3.2-2.8c-1.3,1.3-1.9,2.6-1.3,4.5C19.1,26.9,20.9,28,22.7,27.5z"/>
</svg>
